<?xml version="1.0" encoding="UTF-8"?>
<svg width="60px" height="60px" viewBox="0 0 60 60" version="1.1" xmlns="http://www.w3.org/2000/svg" xmlns:xlink="http://www.w3.org/1999/xlink">
    <title>431B970E-DA8F-449F-A424-830B6A12F0F6</title>
    <g id="Huis-highlighten" stroke="none" stroke-width="1" fill="none" fill-rule="evenodd">
        <g id="Huis-highlighten-optie-1" transform="translate(-603.000000, -380.000000)">
            <g id="Group-2" transform="translate(603.000000, 380.000000)">
                <g id="Group" fill="#FFFFFF">
                    <circle id="Oval" fill-opacity="0.2" cx="30" cy="30" r="30"></circle>
                    <circle id="Oval" fill-opacity="0.5" cx="30" cy="30" r="24"></circle>
                    <circle id="Oval" cx="30" cy="30" r="18"></circle>
                </g>
                <g id="Group" transform="translate(18.000000, 19.000000)" stroke="#333333" stroke-linecap="round" stroke-linejoin="round">
                    <g id="Regular">
                        <path d="M20.25,9.75 L20.25,20.25 C20.25,21.0784271 19.5784271,21.75 18.75,21.75 L5.25,21.75 C4.42157288,21.75 3.75,21.0784271 3.75,20.25 L3.75,9.75" id="Shape"></path>
                        <path d="M0.75,8.25 L11.113,0.65 C11.6409674,0.262854474 12.3590326,0.262854474 12.887,0.65 L23.25,8.25" id="Shape"></path>
                        <polyline id="Shape" points="18.75 0.75 21.75 0.75 21.75 3.75"></polyline>
                        <path d="M13.5,18.75 L13.5,16.224 C14.7423025,15.7986121 15.7324477,14.8449189 16.204113,13.6194384 C16.6757782,12.393958 16.5805345,11.0225183 15.944,9.874 C15.944,9.874 13.896,11.966 13.679,12.244 C13.4375339,12.5549378 13.0742114,12.7472646 12.6813121,12.7721316 C12.2884128,12.7969987 11.9037415,12.6520133 11.625,12.374 L11.625,12.374 C11.3473337,12.0952836 11.2025703,11.7108456 11.2274328,11.3182093 C11.2522953,10.9255731 11.4443948,10.5624659 11.755,10.321 C12.033,10.103 14.125,8.056 14.125,8.056 C12.9620271,7.40407029 11.5646926,7.32007549 10.332,7.828 C8.58735017,8.51328293 7.45393328,10.2124557 7.491414,12.0864917 C7.52889472,13.9605277 8.72934497,15.6130232 10.5,16.228 L10.5,18.75" id="Shape"></path>
                    </g>
                </g>
            </g>
        </g>
    </g>
</svg>
