{
  "accessors": [
    {
      "name": "Hedra001_1_0_positions",
      "componentType": 5126,
      "count": 180,
      "min": [
        -36.43159866333008,
        55.592098236083984,
        -28.351699829101562
      ],
      "max": [
        29.362499237060547,
        121.38619995117188,
        39.23509979248047
      ],
      "type": "VEC3",
      "bufferView": 0,
      "byteOffset": 0
    },
    {
      "name": "Hedra001_1_0_normals",
      "componentType": 5126,
      "count": 180,
      "min": [
        -0.9574223756790161,
        -0.9112201929092407,
        -0.904851496219635
      ],
      "max": [
        0.9643883109092712,
        0.9492332339286804,
        0.9485108256340027
      ],
      "type": "VEC3",
      "bufferView": 1,
      "byteOffset": 0
    },
    {
      "name": "Hedra001_1_0_texcoords",
      "componentType": 5126,
      "count": 180,
      "min": [
        -0.4535999894142151,
        0.5130000114440918
      ],
      "max": [
        0.4309000074863434,
        1.4486000537872314
      ],
      "type": "VEC2",
      "bufferView": 2,
      "byteOffset": 0
    },
    {
      "name": "Hedra001_1_0_indices",
      "componentType": 5123,
      "count": 348,
      "min": [
        0
      ],
      "max": [
        179
      ],
      "type": "SCALAR",
      "bufferView": 3,
      "byteOffset": 0
    },
    {
      "name": "Cylinder002_1_0_positions",
      "componentType": 5126,
      "count": 77,
      "min": [
        -10.637700080871582,
        0,
        -3.6338000297546387
      ],
      "max": [
        12.249199867248535,
        62.5635986328125,
        8.694899559020996
      ],
      "type": "VEC3",
      "bufferView": 0,
      "byteOffset": 2160
    },
    {
      "name": "Cylinder002_1_0_normals",
      "componentType": 5126,
      "count": 77,
      "min": [
        -0.9697530269622803,
        -1,
        -0.9990031123161316
      ],
      "max": [
        0.97041255235672,
        0.6907729506492615,
        0.9975789189338684
      ],
      "type": "VEC3",
      "bufferView": 1,
      "byteOffset": 2160
    },
    {
      "name": "Cylinder002_1_0_texcoords",
      "componentType": 5126,
      "count": 77,
      "min": [
        0.02449999935925007,
        0
      ],
      "max": [
        1.149999976158142,
        1
      ],
      "type": "VEC2",
      "bufferView": 2,
      "byteOffset": 1440
    },
    {
      "name": "Cylinder002_1_0_indices",
      "componentType": 5123,
      "count": 129,
      "min": [
        0
      ],
      "max": [
        76
      ],
      "type": "SCALAR",
      "bufferView": 3,
      "byteOffset": 696
    },
    {
      "name": "Cylinder002_1_1_positions",
      "componentType": 5126,
      "count": 25,
      "min": [
        -3.749799966812134,
        58.39059829711914,
        -0.4828000068664551
      ],
      "max": [
        8.645000457763672,
        71.70939636230469,
        5.543900012969971
      ],
      "type": "VEC3",
      "bufferView": 0,
      "byteOffset": 3084
    },
    {
      "name": "Cylinder002_1_1_normals",
      "componentType": 5126,
      "count": 25,
      "min": [
        -0.8071070313453674,
        -0.5904051661491394,
        -0.9714550971984863
      ],
      "max": [
        0.35139596462249756,
        0.8071070313453674,
        0.9714550971984863
      ],
      "type": "VEC3",
      "bufferView": 1,
      "byteOffset": 3084
    },
    {
      "name": "Cylinder002_1_1_texcoords",
      "componentType": 5126,
      "count": 25,
      "min": [
        0.02449999935925007,
        0
      ],
      "max": [
        0.9754999876022339,
        0.9045000076293945
      ],
      "type": "VEC2",
      "bufferView": 2,
      "byteOffset": 2056
    },
    {
      "name": "Cylinder002_1_1_indices",
      "componentType": 5123,
      "count": 39,
      "min": [
        0
      ],
      "max": [
        24
      ],
      "type": "SCALAR",
      "bufferView": 3,
      "byteOffset": 956
    }
  ],
  "asset": {
    "generator": "obj2gltf",
    "version": "2.0"
  },
  "buffers": [
    {
      "name": "Tree low",
      "byteLength": 10060,
      "uri": "data:application/octet-stream;base64,"
    }
  ],
  "bufferViews": [
    {
      "name": "bufferView_0",
      "buffer": 0,
      "byteLength": 3384,
      "byteOffset": 0,
      "byteStride": 12,
      "target": 34962
    },
    {
      "name": "bufferView_1",
      "buffer": 0,
      "byteLength": 3384,
      "byteOffset": 3384,
      "byteStride": 12,
      "target": 34962
    },
    {
      "name": "bufferView_2",
      "buffer": 0,
      "byteLength": 2256,
      "byteOffset": 6768,
      "byteStride": 8,
      "target": 34962
    },
    {
      "name": "bufferView_3",
      "buffer": 0,
      "byteLength": 1036,
      "byteOffset": 9024,
      "target": 34963
    }
  ],
  "materials": [
    {
      "name": "wire_154185229",
      "pbrMetallicRoughness": {
        "baseColorFactor": [
          0.6039,
          0.7255,
          0.898,
          1
        ],
        "metallicFactor": 0,
        "roughnessFactor": 0.968
      },
      "emissiveFactor": [
        0,
        0,
        0
      ],
      "alphaMode": "OPAQUE",
      "doubleSided": false
    },
    {
      "name": "wire_224086086",
      "pbrMetallicRoughness": {
        "baseColorFactor": [
          0.8784,
          0.3373,
          0.3373,
          1
        ],
        "metallicFactor": 0,
        "roughnessFactor": 0.968
      },
      "emissiveFactor": [
        0,
        0,
        0
      ],
      "alphaMode": "OPAQUE",
      "doubleSided": false
    },
    {
      "name": "Material__49",
      "pbrMetallicRoughness": {
        "baseColorFactor": [
          0.588,
          0.588,
          0.588,
          1
        ],
        "metallicFactor": 0,
        "roughnessFactor": 0.99
      },
      "emissiveFactor": [
        0,
        0,
        0
      ],
      "alphaMode": "OPAQUE",
      "doubleSided": false
    }
  ],
  "meshes": [
    {
      "name": "Hedra001_1",
      "primitives": [
        {
          "attributes": {
            "POSITION": 0,
            "NORMAL": 1,
            "TEXCOORD_0": 2
          },
          "indices": 3,
          "material": 0,
          "mode": 4
        }
      ]
    },
    {
      "name": "Cylinder002_1",
      "primitives": [
        {
          "attributes": {
            "POSITION": 4,
            "NORMAL": 5,
            "TEXCOORD_0": 6
          },
          "indices": 7,
          "material": 1,
          "mode": 4
        },
        {
          "attributes": {
            "POSITION": 8,
            "NORMAL": 9,
            "TEXCOORD_0": 10
          },
          "indices": 11,
          "material": 2,
          "mode": 4
        }
      ]
    }
  ],
  "nodes": [
    {
      "name": "Hedra001",
      "mesh": 0
    },
    {
      "name": "Cylinder002",
      "mesh": 1
    }
  ],
  "scene": 0,
  "scenes": [
    {
      "nodes": [
        0,
        1
      ]
    }
  ]
}
